<svg id="Layer_1" width="100%" height="375" data-name="Layer 1" xmlns="http://www.w3.org/2000/svg" viewBox="0 0 380.96 375"><defs><style>.cls-1,.cls-13,.cls-16{fill:#fff;}.cls-1,.cls-12,.cls-13,.cls-16,.cls-2,.cls-20{stroke:#231f20;}.cls-1,.cls-11,.cls-12,.cls-13,.cls-14,.cls-16,.cls-18,.cls-19,.cls-2,.cls-20{stroke-miterlimit:10;}.cls-1,.cls-2{stroke-width:0.5px;}.cls-17,.cls-2{fill:#231f20;}.cls-3{fill:#2f2f2f;}.cls-4{fill:#252525;}.cls-5{fill:#4c4c4c;}.cls-6{fill:#1d1d1d;}.cls-7{fill:#151515;}.cls-8{fill:#171717;}.cls-9{fill:#1f1f1f;}.cls-10{fill:#4b4b4b;}.cls-11,.cls-14,.cls-18,.cls-19,.cls-20{fill:none;}.cls-11,.cls-14,.cls-18,.cls-19{stroke:#497824;}.cls-11,.cls-13,.cls-14,.cls-18,.cls-19{stroke-width:2px;}.cls-11{stroke-dasharray:10;}.cls-12{fill:#a7a9ac;}.cls-12,.cls-16{stroke-width:4px;}.cls-14{stroke-dasharray:10 10;}.cls-15{fill:#497824;}.cls-17{font-size:18.29px;font-family:OpenSans, Open Sans;}.cls-18{stroke-dasharray:8;}.cls-19{stroke-dasharray:6 6;}</style></defs><title>Artboard 1</title><rect class="cls-1" x="34.6" y="32.68" width="36.57" height="36.57"/><rect class="cls-1" x="107.74" y="32.68" width="36.57" height="36.57"/><rect class="cls-2" x="144.32" y="32.68" width="36.57" height="36.57"/><rect class="cls-1" x="180.89" y="32.68" width="36.57" height="36.57"/><rect class="cls-1" x="71.17" y="69.26" width="36.57" height="36.57"/><rect class="cls-2" x="107.74" y="69.26" width="36.57" height="36.57"/><rect class="cls-1" x="144.32" y="69.26" width="36.57" height="36.57"/><rect class="cls-2" x="180.89" y="69.26" width="36.57" height="36.57"/><rect class="cls-1" x="34.6" y="105.83" width="36.57" height="36.57"/><rect class="cls-2" x="71.17" y="105.83" width="36.57" height="36.57"/><rect class="cls-1" x="107.74" y="105.83" width="36.57" height="36.57"/><rect class="cls-2" x="144.32" y="105.83" width="36.57" height="36.57"/><rect class="cls-1" x="180.89" y="105.83" width="36.57" height="36.57"/><rect class="cls-2" x="34.6" y="142.4" width="36.57" height="36.57"/><rect class="cls-1" x="71.17" y="142.4" width="36.57" height="36.57"/><rect class="cls-2" x="107.74" y="142.4" width="36.57" height="36.57"/><rect class="cls-1" x="144.32" y="142.4" width="36.57" height="36.57"/><rect class="cls-2" x="180.89" y="142.4" width="36.57" height="36.57"/><rect class="cls-1" x="34.6" y="178.98" width="36.57" height="36.57"/><rect class="cls-2" x="71.17" y="178.98" width="36.57" height="36.57"/><rect class="cls-1" x="107.74" y="178.98" width="36.57" height="36.57"/><rect class="cls-2" x="144.32" y="178.98" width="36.57" height="36.57"/><rect class="cls-1" x="180.89" y="178.98" width="36.57" height="36.57"/><g id="_6nHHAL.tif" data-name="6nHHAL.tif"><path class="cls-3" d="M194.78,203.46a1.49,1.49,0,0,1-1.17-1.32,8,8,0,0,1,3.09-6.92,11.13,11.13,0,0,0,1.66-1.49,5.44,5.44,0,0,0,1.19-2.76,5.3,5.3,0,0,0,0-1.27l-.17.31a2,2,0,0,1-2.24.92,2,2,0,0,0-1.81.47,2.31,2.31,0,0,0-.69.77.33.33,0,0,1-.26.17,1.38,1.38,0,0,1-1.38-.62,1.36,1.36,0,0,1,.08-1.54c.66-.84,1.33-1.67,2-2.5l1.51-1.89a1.27,1.27,0,0,1,1-.54c.12,0,.12-.09.13-.16a3,3,0,0,1,1.58-2c.13-.06.25-.09.32.09,0,.54,0,1.08,0,1.52v-1.3a.3.3,0,0,1,0-.16,3.19,3.19,0,0,1,0,.69c0,.34,0,.67,0,1,0,.15.05.19.18.21a7.51,7.51,0,0,1,2.13.65,6.73,6.73,0,0,1,3.67,4.63,7.25,7.25,0,0,1-.15,3.67A15.77,15.77,0,0,0,205,196a.54.54,0,0,1,0,.1c-.08.2-.11.42-.18.62a11.47,11.47,0,0,1-1.22,2.36,8.65,8.65,0,0,1-1.22,1.48,9.38,9.38,0,0,1-2,1.56,10.36,10.36,0,0,1-3.66,1.23,7.49,7.49,0,0,1-1.49.12A1.29,1.29,0,0,1,194.78,203.46Z"/><path class="cls-3" d="M203.17,204.69a8.84,8.84,0,0,0,2.48,2,1.9,1.9,0,0,1,.53.4,1.08,1.08,0,0,1-.45,1.79s-.08,0-.1,0-.08.1-.15.1c-4.08,0-8.16,0-12.24,0h-.34c-.07,0-.15,0-.2-.08s-.09,0-.13-.07a1.08,1.08,0,0,1-.38-1.79,2.71,2.71,0,0,1,.74-.51,8.61,8.61,0,0,0,2.26-1.86c.05-.06.12-.05.19-.05H203C203,204.64,203.12,204.63,203.17,204.69Z"/><path class="cls-4" d="M194.78,203.46a.28.28,0,0,1,.18,0,10.33,10.33,0,0,0,2.88-.35,9.45,9.45,0,0,0,3.13-1.42,8.55,8.55,0,0,0,1.31-1.08,10.59,10.59,0,0,0,1.84-2.52,14.93,14.93,0,0,0,.81-1.89l0,0,0,0c-.07.55-.17,1.1-.22,1.66,0,.41-.08.83-.09,1.24,0,.1,0,.2,0,.3a3.37,3.37,0,0,0,0,.71c0,.67,0,1.34.05,2a1.47,1.47,0,0,1-1.22,1.43.38.38,0,0,1,.28.1.27.27,0,0,1,0,.38l-.58.69a.32.32,0,0,1-.17,0h-7.65a.3.3,0,0,1-.16,0c-.19-.21-.37-.43-.55-.65s-.14-.38.11-.51C194.77,203.48,194.79,203.48,194.78,203.46Z"/><path class="cls-3" d="M206.47,211c-.05.05-.11,0-.17,0H192s-.12,0-.16,0c0-.3,0-.59,0-.89,0-.06,0-.12,0-.18a.78.78,0,0,1,.37,0h13.8a.51.51,0,0,1,.36.06,2.63,2.63,0,0,1,0,.56A4,4,0,0,0,206.47,211Z"/><path class="cls-4" d="M206.44,210H192.23a.71.71,0,0,1-.32,0s0-.09,0-.14a1,1,0,0,1,.77-.85l0,0h12.52a1.13,1.13,0,0,0,.41,0,1.38,1.38,0,0,1,.53.29,1,1,0,0,1,.31.6C206.44,209.86,206.48,209.92,206.44,210Z"/><path class="cls-5" d="M195.19,204.65h8v0h-8Z"/><path class="cls-6" d="M199.62,183.26v1.81c-.05,0,0-.1,0-.14v-1.52a.39.39,0,0,1,0-.21Z"/><path class="cls-7" d="M191.88,209.8l0,.14v.86a.35.35,0,0,1,0,.2C191.87,210.6,191.86,210.2,191.88,209.8Z"/><path class="cls-8" d="M206.44,210a.36.36,0,0,1,0-.17,9.61,9.61,0,0,1,0,1.2,3.76,3.76,0,0,1,0-.67Z"/><path class="cls-9" d="M204.63,200.05a6.22,6.22,0,0,1,0-.87c.05.06,0,.12,0,.16Z"/><path class="cls-10" d="M194.46,188.9c-.14.34-.3.67-.41,1a5,5,0,0,0-.3,1.83c0,.06,0,.14,0,.17s-.13,0-.17-.08a1.12,1.12,0,0,1-.17-1.61c.32-.42.66-.84,1-1.25Z"/><path class="cls-5" d="M192.7,208.48a.75.75,0,0,1-.55-.78.77.77,0,0,1,.68-.68A1,1,0,0,0,192.7,208.48Z"/></g><line class="cls-11" x1="199.58" y1="159.78" x2="199.58" y2="180.44"/><rect class="cls-1" x="254.04" y="32.68" width="36.57" height="36.57"/><rect class="cls-2" x="290.61" y="32.68" width="36.57" height="36.57"/><rect class="cls-1" x="327.18" y="32.68" width="36.57" height="36.57"/><rect class="cls-1" x="217.46" y="69.26" width="36.57" height="36.57"/><rect class="cls-2" x="254.04" y="69.26" width="36.57" height="36.57"/><rect class="cls-1" x="290.61" y="69.26" width="36.57" height="36.57"/><rect class="cls-2" x="327.18" y="69.26" width="36.57" height="36.57"/><rect class="cls-2" x="217.46" y="105.83" width="36.57" height="36.57"/><rect class="cls-1" x="254.04" y="105.83" width="36.57" height="36.57"/><rect class="cls-2" x="290.61" y="105.83" width="36.57" height="36.57"/><rect class="cls-1" x="327.18" y="105.83" width="36.57" height="36.57"/><rect class="cls-1" x="217.46" y="142.4" width="36.57" height="36.57"/><rect class="cls-1" x="291.48" y="142.4" width="35.71" height="36.57"/><rect class="cls-2" x="327.18" y="142.4" width="36.57" height="36.57"/><rect class="cls-2" x="217.46" y="178.98" width="36.57" height="36.57"/><rect class="cls-1" x="254.04" y="178.98" width="36.57" height="36.57"/><rect class="cls-2" x="290.61" y="178.98" width="36.57" height="36.57"/><rect class="cls-1" x="71.17" y="215.55" width="36.57" height="36.57"/><rect class="cls-12" x="254.04" y="141.49" width="36.57" height="36.57"/><circle class="cls-13" cx="272.32" cy="159.78" r="5.73"/><rect class="cls-2" x="107.74" y="215.55" width="36.57" height="36.57"/><rect class="cls-1" x="144.32" y="215.55" width="36.57" height="36.57"/><rect class="cls-2" x="180.89" y="215.55" width="36.57" height="36.57"/><rect class="cls-1" x="34.6" y="252.12" width="36.57" height="36.57"/><rect class="cls-2" x="71.17" y="252.12" width="36.57" height="36.57"/><rect class="cls-1" x="107.74" y="252.12" width="36.57" height="36.57"/><rect class="cls-2" x="144.32" y="252.12" width="36.57" height="36.57"/><rect class="cls-1" x="180.89" y="252.12" width="36.57" height="36.57"/><rect class="cls-2" x="34.6" y="288.7" width="36.57" height="36.57"/><rect class="cls-1" x="71.17" y="288.7" width="36.57" height="36.57"/><rect class="cls-2" x="107.74" y="288.7" width="36.57" height="36.57"/><line class="cls-14" x1="199.58" y1="160.69" x2="259.65" y2="160.69"/><polygon class="cls-15" points="255.67 164.08 259.06 160.69 255.67 157.3 258.55 157.3 261.94 160.69 258.55 164.08 255.67 164.08"/><rect class="cls-1" x="144.32" y="288.7" width="36.57" height="36.57"/><rect class="cls-2" x="180.89" y="288.7" width="36.57" height="36.57"/><rect class="cls-1" x="34.6" y="325.27" width="36.57" height="36.57"/><rect class="cls-2" x="71.17" y="325.27" width="36.57" height="36.57"/><rect class="cls-1" x="107.74" y="325.27" width="36.57" height="36.57"/><rect class="cls-2" x="144.32" y="325.27" width="36.57" height="36.57"/><rect class="cls-1" x="180.89" y="325.27" width="36.57" height="36.57"/><rect class="cls-1" x="217.46" y="215.55" width="36.57" height="36.57"/><rect class="cls-1" x="290.61" y="215.55" width="36.57" height="36.57"/><rect class="cls-2" x="327.18" y="215.55" width="36.57" height="36.57"/><rect class="cls-2" x="217.46" y="252.12" width="36.57" height="36.57"/><rect class="cls-1" x="254.04" y="252.12" width="36.57" height="36.57"/><rect class="cls-2" x="290.61" y="252.12" width="36.57" height="36.57"/><rect class="cls-1" x="327.18" y="252.12" width="36.57" height="36.57"/><rect class="cls-16" x="327.18" y="178.98" width="36.57" height="36.57"/><rect class="cls-1" x="217.46" y="288.7" width="36.57" height="36.57"/><rect class="cls-2" x="254.04" y="288.7" width="36.57" height="36.57"/><rect class="cls-1" x="290.61" y="288.7" width="36.57" height="36.57"/><rect class="cls-2" x="327.18" y="288.7" width="36.57" height="36.57"/><rect class="cls-2" x="217.46" y="325.27" width="36.57" height="36.57"/><rect class="cls-1" x="254.04" y="325.27" width="36.57" height="36.57"/><rect class="cls-12" x="254.04" y="215.55" width="36.57" height="36.57"/><rect class="cls-2" x="290.61" y="325.27" width="36.57" height="36.57"/><rect class="cls-1" x="327.18" y="325.27" width="36.57" height="36.57"/><text class="cls-17" transform="translate(265.68 25.11) scale(1.07 1)">6</text><text class="cls-17" transform="translate(301.86 25.11) scale(1.07 1)">7</text><text class="cls-17" transform="translate(338.95 25.11) scale(1.07 1)">8</text><text class="cls-17" transform="translate(83.97 25.11) scale(1.07 1)">1</text><text class="cls-17" transform="translate(120.15 25.11) scale(1.07 1)">2</text><text class="cls-17" transform="translate(157.54 25.11) scale(1.07 1)">3</text><text class="cls-17" transform="translate(193.72 25.11) scale(1.07 1)">4</text><text class="cls-17" transform="translate(229.65 25.11) scale(1.07 1)">5</text><text class="cls-17" transform="translate(47.4 25.11) scale(1.07 1)">0</text><text class="cls-17" transform="translate(12.22 276.14) scale(1.07 1)">6</text><text class="cls-17" transform="translate(12.22 312.72) scale(1.07 1)">7</text><text class="cls-17" transform="translate(12.22 349.29) scale(1.07 1)">8</text><text class="cls-17" transform="translate(12.22 93.28) scale(1.07 1)">1</text><text class="cls-17" transform="translate(12.22 129.85) scale(1.07 1)">2</text><text class="cls-17" transform="translate(12.22 166.42) scale(1.07 1)">3</text><text class="cls-17" transform="translate(12.22 203) scale(1.07 1)">4</text><text class="cls-17" transform="translate(12.22 239.57) scale(1.07 1)">5</text><text class="cls-17" transform="translate(12.22 56.7) scale(1.07 1)">0</text><rect class="cls-2" x="34.6" y="69.26" width="36.57" height="36.57"/><rect class="cls-2" x="71.17" y="32.68" width="36.57" height="36.57"/><rect class="cls-2" x="217.46" y="32.68" width="36.57" height="36.57"/><rect class="cls-2" x="34.6" y="215.55" width="36.57" height="36.57"/><circle class="cls-13" cx="272.32" cy="233.84" r="5.73"/><line class="cls-18" x1="199.58" y1="213.66" x2="199.58" y2="232.56"/><line class="cls-14" x1="198.67" y1="232.62" x2="259.46" y2="232.62"/><polygon class="cls-15" points="255.48 236.01 258.87 232.62 255.48 229.23 258.36 229.23 261.75 232.62 258.36 236.01 255.48 236.01"/><line class="cls-19" x1="346.06" y1="159.78" x2="345.94" y2="177.86"/><polygon class="cls-15" points="342.58 173.86 345.95 177.27 349.36 173.9 349.34 176.78 345.93 180.15 342.56 176.74 342.58 173.86"/><line class="cls-11" x1="346.05" y1="160.69" x2="284.36" y2="160.69"/><line class="cls-19" x1="346.05" y1="233.53" x2="346.05" y2="217.39"/><polygon class="cls-15" points="349.44 221.37 346.06 217.98 342.66 221.37 342.66 218.49 346.06 215.1 349.44 218.49 349.44 221.37"/><line class="cls-11" x1="346.05" y1="232.62" x2="284.36" y2="232.62"/><g id="_6nHHAL.tif-2" data-name="6nHHAL.tif"><path class="cls-3" d="M341.07,203.67a1.45,1.45,0,0,1-1.16-1.32,8,8,0,0,1,3.08-6.91,11.77,11.77,0,0,0,1.66-1.49,5.36,5.36,0,0,0,1.19-2.76,4.84,4.84,0,0,0,0-1.27c-.07.13-.11.22-.17.31a1.94,1.94,0,0,1-2.23.92,2,2,0,0,0-1.82.47,2.44,2.44,0,0,0-.69.77.3.3,0,0,1-.25.16,1.34,1.34,0,0,1-1.38-.62,1.31,1.31,0,0,1,.08-1.53l2-2.51,1.51-1.89a1.33,1.33,0,0,1,1-.54c.12,0,.12-.08.14-.16a3,3,0,0,1,1.57-2c.13-.07.25-.09.32.08,0,.55,0,1.09,0,1.53v-1.3c0-.06,0-.12,0-.17a4.09,4.09,0,0,1,0,.7c0,.33,0,.67,0,1,0,.14.05.19.19.21a7.23,7.23,0,0,1,2.12.65,6.73,6.73,0,0,1,3.67,4.63,7.14,7.14,0,0,1-.15,3.67,15.74,15.74,0,0,0-.45,1.92l0,.09c-.09.21-.12.43-.19.63a11.24,11.24,0,0,1-1.22,2.36,9.54,9.54,0,0,1-1.21,1.48,9.68,9.68,0,0,1-2,1.56,10.36,10.36,0,0,1-3.66,1.23,8.25,8.25,0,0,1-1.49.12A1.08,1.08,0,0,1,341.07,203.67Z"/><path class="cls-3" d="M349.46,204.9a8.71,8.71,0,0,0,2.48,2,1.73,1.73,0,0,1,.53.4,1.07,1.07,0,0,1-.45,1.79s-.08,0-.1,0-.08.1-.15.1c-4.08,0-8.16,0-12.24,0h-.34c-.07,0-.15,0-.19-.08a.25.25,0,0,0-.14-.06,1.08,1.08,0,0,1-.37-1.79,3.13,3.13,0,0,1,.73-.52,8.42,8.42,0,0,0,2.26-1.86.25.25,0,0,1,.19-.05h7.6A.25.25,0,0,1,349.46,204.9Z"/><path class="cls-4" d="M341.07,203.67a.38.38,0,0,1,.18,0,10.33,10.33,0,0,0,2.88-.35,9.59,9.59,0,0,0,3.14-1.42,9.71,9.71,0,0,0,1.31-1.09,10.74,10.74,0,0,0,1.84-2.52,15.8,15.8,0,0,0,.81-1.89l0,0,0,0c-.08.56-.18,1.11-.22,1.67,0,.41-.09.82-.1,1.24,0,.1,0,.2,0,.3a3.28,3.28,0,0,0,0,.7c0,.67,0,1.34.05,2a1.48,1.48,0,0,1-1.22,1.43.42.42,0,0,1,.29.09.28.28,0,0,1,0,.39l-.58.69a.3.3,0,0,1-.16,0h-7.65a.32.32,0,0,1-.17,0l-.54-.65c-.18-.22-.15-.38.11-.51C341.06,203.7,341.08,203.7,341.07,203.67Z"/><path class="cls-3" d="M352.77,211.21c0,.06-.12,0-.18,0H338.33c-.05,0-.11,0-.16,0a8.62,8.62,0,0,0,0-.88c0-.06,0-.13,0-.18a.63.63,0,0,1,.36,0h13.8a.51.51,0,0,1,.36.06,2.53,2.53,0,0,1,0,.55A3.93,3.93,0,0,0,352.77,211.21Z"/><path class="cls-4" d="M352.74,210.19H338.53a.85.85,0,0,1-.32,0s0-.1,0-.14a1,1,0,0,1,.76-.85l.06,0h12.52a1.08,1.08,0,0,0,.4,0,1.5,1.5,0,0,1,.53.28,1.1,1.1,0,0,1,.32.61S352.78,210.14,352.74,210.19Z"/><path class="cls-5" d="M341.48,204.87h8v0h-8Z"/><path class="cls-6" d="M345.92,183.47v1.82c-.06,0,0-.1,0-.15v-1.51a.42.42,0,0,1,0-.22Z"/><path class="cls-7" d="M338.18,210l0,.14c0,.28,0,.57,0,.86a.32.32,0,0,1,0,.19C338.16,210.82,338.16,210.42,338.18,210Z"/><path class="cls-8" d="M352.74,210.19a.25.25,0,0,1,0-.17,11.81,11.81,0,0,1,0,1.19,2.49,2.49,0,0,1,0-.67C352.73,210.43,352.74,210.31,352.74,210.19Z"/><path class="cls-9" d="M350.92,200.26a6.07,6.07,0,0,1,0-.86c.05.06,0,.11,0,.16Z"/><path class="cls-10" d="M340.75,189.11c-.14.35-.29.68-.41,1A5.39,5.39,0,0,0,340,192c0,.06,0,.15,0,.18s-.12,0-.17-.09a1.12,1.12,0,0,1-.17-1.61l1-1.25A.6.6,0,0,1,340.75,189.11Z"/><path class="cls-5" d="M339,208.69a.73.73,0,0,1-.54-.77.78.78,0,0,1,.68-.69A1,1,0,0,0,339,208.69Z"/></g><rect class="cls-20" x="34.1" y="32.19" width="329.66" height="329.66"/></svg>