<svg id="Layer_1" width="100%" height="400" data-name="Layer 1" xmlns="http://www.w3.org/2000/svg" viewBox="0 0 420.46 427.15"><defs><style>.cls-1,.cls-11,.cls-13{fill:#fff;}.cls-1,.cls-11,.cls-12,.cls-13,.cls-19,.cls-2{stroke:#231f20;}.cls-1,.cls-11,.cls-12,.cls-13,.cls-15,.cls-16,.cls-18,.cls-19,.cls-2{stroke-miterlimit:10;}.cls-1,.cls-2{stroke-width:0.5px;}.cls-14,.cls-2{fill:#231f20;}.cls-3{fill:#2f2f2f;}.cls-4{fill:#252525;}.cls-5{fill:#4c4c4c;}.cls-6{fill:#1d1d1d;}.cls-7{fill:#151515;}.cls-8{fill:#171717;}.cls-9{fill:#1f1f1f;}.cls-10{fill:#4b4b4b;}.cls-11,.cls-12{stroke-width:4px;}.cls-12{fill:#a7a9ac;}.cls-13,.cls-15,.cls-16,.cls-18{stroke-width:2px;}.cls-14{font-size:18.29px;font-family:OpenSans, Open Sans;}.cls-15,.cls-16,.cls-18,.cls-19{fill:none;}.cls-15,.cls-16,.cls-18{stroke:#497824;}.cls-15{stroke-dasharray:8;}.cls-16{stroke-dasharray:8 8;}.cls-17{fill:#497824;}.cls-18{stroke-dasharray:10;}</style></defs><title>Artboard 1</title><rect class="cls-1" x="34.6" y="32.68" width="36.57" height="36.57"/><rect class="cls-2" x="144.32" y="32.68" width="36.57" height="36.57"/><rect class="cls-1" x="180.89" y="32.68" width="36.57" height="36.57"/><rect class="cls-1" x="71.17" y="69.26" width="36.57" height="36.57"/><rect class="cls-2" x="107.74" y="69.26" width="36.57" height="36.57"/><rect class="cls-1" x="144.32" y="69.26" width="36.57" height="36.57"/><rect class="cls-2" x="180.89" y="69.26" width="36.57" height="36.57"/><rect class="cls-1" x="34.6" y="105.83" width="36.57" height="36.57"/><rect class="cls-1" x="107.74" y="105.83" width="36.57" height="36.57"/><rect class="cls-2" x="144.32" y="105.83" width="36.57" height="36.57"/><rect class="cls-1" x="180.89" y="105.83" width="36.57" height="36.57"/><rect class="cls-2" x="34.6" y="142.4" width="36.57" height="36.57"/><rect class="cls-1" x="71.17" y="142.4" width="36.57" height="36.57"/><rect class="cls-2" x="107.74" y="142.4" width="36.57" height="36.57"/><rect class="cls-1" x="144.32" y="142.4" width="36.57" height="36.57"/><rect class="cls-2" x="180.89" y="142.4" width="36.57" height="36.57"/><rect class="cls-1" x="34.6" y="178.98" width="36.57" height="36.57"/><rect class="cls-2" x="71.17" y="178.98" width="36.57" height="36.57"/><rect class="cls-1" x="107.74" y="178.98" width="36.57" height="36.57"/><rect class="cls-2" x="144.32" y="178.98" width="36.57" height="36.57"/><rect class="cls-1" x="180.89" y="178.98" width="36.57" height="36.57"/><g id="_6nHHAL.tif" data-name="6nHHAL.tif"><path class="cls-3" d="M48.48,57.38a1.48,1.48,0,0,1-1.16-1.32,8,8,0,0,1,3.09-6.92,11.64,11.64,0,0,0,1.66-1.48,5.56,5.56,0,0,0,1.19-2.76,5.33,5.33,0,0,0,0-1.27l-.17.31a2,2,0,0,1-2.24.91,2,2,0,0,0-1.82.47,2.5,2.5,0,0,0-.68.77.33.33,0,0,1-.26.17,1.38,1.38,0,0,1-1.38-.62,1.32,1.32,0,0,1,.08-1.53l2-2.51,1.51-1.89a1.3,1.3,0,0,1,1-.54c.12,0,.11-.09.13-.16A3,3,0,0,1,53,37c.13-.07.25-.09.32.08,0,.54,0,1.09,0,1.53V37.34c0-.05,0-.11,0-.16a5.4,5.4,0,0,1,0,.7c0,.33,0,.67,0,1,0,.15,0,.19.18.22a7.12,7.12,0,0,1,2.12.64,6.72,6.72,0,0,1,3.67,4.63A7.14,7.14,0,0,1,59.17,48,18.42,18.42,0,0,0,58.72,50l0,.1c-.09.2-.11.42-.19.63A10.89,10.89,0,0,1,57.29,53a10.3,10.3,0,0,1-1.22,1.49,9.68,9.68,0,0,1-2,1.56,10.5,10.5,0,0,1-3.66,1.23,8.24,8.24,0,0,1-1.49.11A.92.92,0,0,1,48.48,57.38Z"/><path class="cls-3" d="M56.87,58.61a8.75,8.75,0,0,0,2.49,2,2.25,2.25,0,0,1,.52.4,1.07,1.07,0,0,1-.44,1.79s-.08,0-.11.05-.07.09-.14.09H46.6c-.07,0-.15,0-.19-.08s-.09-.05-.13-.07A1.07,1.07,0,0,1,45.9,61a3.13,3.13,0,0,1,.73-.52,8.12,8.12,0,0,0,2.26-1.86.23.23,0,0,1,.19,0h7.6C56.75,58.56,56.82,58.55,56.87,58.61Z"/><path class="cls-4" d="M48.48,57.38a.4.4,0,0,1,.19,0A10.44,10.44,0,0,0,51.55,57a9.61,9.61,0,0,0,3.13-1.41A9.13,9.13,0,0,0,56,54.49,10.59,10.59,0,0,0,57.83,52a14.33,14.33,0,0,0,.81-1.89l0,0,0,0c-.07.56-.17,1.11-.22,1.67s-.09.82-.1,1.23c0,.1,0,.21,0,.31a2.35,2.35,0,0,0,0,.7c0,.67,0,1.34,0,2a1.46,1.46,0,0,1-1.22,1.42.41.41,0,0,1,.28.1.27.27,0,0,1,0,.38l-.57.7c-.06,0-.11,0-.17,0H49.06c-.06,0-.11,0-.17,0l-.54-.65c-.18-.22-.14-.38.11-.52C48.47,57.41,48.49,57.4,48.48,57.38Z"/><path class="cls-3" d="M60.18,64.92c0,.06-.12,0-.17,0H45.74c-.05,0-.11,0-.15,0,0-.29,0-.59,0-.88,0-.07,0-.13,0-.19a.78.78,0,0,1,.37,0H59.78a.49.49,0,0,1,.36.07,2.54,2.54,0,0,1,0,.55A4,4,0,0,0,60.18,64.92Z"/><path class="cls-4" d="M60.15,63.9H45.94a.69.69,0,0,1-.32,0s0-.09,0-.13a1,1,0,0,1,.76-.86l.06,0H58.93a1.34,1.34,0,0,0,.4,0,1.4,1.4,0,0,1,.54.28,1,1,0,0,1,.31.61C60.15,63.78,60.19,63.85,60.15,63.9Z"/><path class="cls-5" d="M48.89,58.58h8a0,0,0,0,1,0,0h-8Z"/><path class="cls-6" d="M53.33,37.18V39a.16.16,0,0,1,0-.15V37.34a.53.53,0,0,1,0-.22Z"/><path class="cls-7" d="M45.59,63.73l0,.13v.86a.44.44,0,0,1,0,.2A11.81,11.81,0,0,1,45.59,63.73Z"/><path class="cls-8" d="M60.15,63.9a.32.32,0,0,1,0-.17,11.81,11.81,0,0,1,0,1.19,3,3,0,0,1,0-.67Z"/><path class="cls-9" d="M58.34,54a4.08,4.08,0,0,1,0-.86c0,.06,0,.11,0,.16Z"/><path class="cls-10" d="M48.16,42.82c-.13.35-.29.68-.41,1a5.11,5.11,0,0,0-.29,1.82c0,.06,0,.14,0,.17s-.12,0-.17-.08a1.12,1.12,0,0,1-.17-1.61l1-1.25A.6.6,0,0,0,48.16,42.82Z"/><path class="cls-5" d="M46.4,62.4a.74.74,0,0,1-.54-.77.77.77,0,0,1,.68-.69A1,1,0,0,0,46.4,62.4Z"/></g><rect class="cls-11" x="107.74" y="32.68" width="36.57" height="36.57"/><rect class="cls-12" x="71.17" y="105.83" width="36.57" height="36.57"/><rect class="cls-1" x="254.04" y="32.68" width="36.57" height="36.57"/><rect class="cls-2" x="290.61" y="32.68" width="36.57" height="36.57"/><rect class="cls-1" x="327.18" y="32.68" width="36.57" height="36.57"/><rect class="cls-1" x="217.46" y="69.26" width="36.57" height="36.57"/><rect class="cls-2" x="254.04" y="69.26" width="36.57" height="36.57"/><rect class="cls-1" x="290.61" y="69.26" width="36.57" height="36.57"/><rect class="cls-2" x="327.18" y="69.26" width="36.57" height="36.57"/><rect class="cls-2" x="217.46" y="105.83" width="36.57" height="36.57"/><rect class="cls-1" x="254.04" y="105.83" width="36.57" height="36.57"/><rect class="cls-2" x="290.61" y="105.83" width="36.57" height="36.57"/><rect class="cls-1" x="327.18" y="105.83" width="36.57" height="36.57"/><rect class="cls-1" x="217.46" y="142.4" width="36.57" height="36.57"/><rect class="cls-1" x="291.48" y="142.4" width="35.71" height="36.57"/><rect class="cls-2" x="327.18" y="142.4" width="36.57" height="36.57"/><rect class="cls-2" x="217.46" y="178.98" width="36.57" height="36.57"/><rect class="cls-1" x="254.04" y="178.98" width="36.57" height="36.57"/><rect class="cls-2" x="290.61" y="178.98" width="36.57" height="36.57"/><rect class="cls-1" x="71.17" y="215.55" width="36.57" height="36.57"/><rect class="cls-2" x="254.04" y="141.49" width="36.57" height="36.57"/><circle class="cls-13" cx="89.46" cy="124.12" r="5.73"/><rect class="cls-2" x="107.74" y="215.55" width="36.57" height="36.57"/><rect class="cls-1" x="144.32" y="215.55" width="36.57" height="36.57"/><rect class="cls-2" x="180.89" y="215.55" width="36.57" height="36.57"/><rect class="cls-1" x="34.6" y="252.12" width="36.57" height="36.57"/><rect class="cls-2" x="71.17" y="252.12" width="36.57" height="36.57"/><rect class="cls-1" x="107.74" y="252.12" width="36.57" height="36.57"/><rect class="cls-2" x="144.32" y="252.12" width="36.57" height="36.57"/><rect class="cls-1" x="180.89" y="252.12" width="36.57" height="36.57"/><rect class="cls-2" x="34.6" y="288.7" width="36.57" height="36.57"/><rect class="cls-1" x="71.17" y="288.7" width="36.57" height="36.57"/><rect class="cls-2" x="107.74" y="288.7" width="36.57" height="36.57"/><rect class="cls-1" x="144.32" y="288.7" width="36.57" height="36.57"/><rect class="cls-2" x="180.89" y="288.7" width="36.57" height="36.57"/><rect class="cls-1" x="34.6" y="325.27" width="36.57" height="36.57"/><rect class="cls-2" x="71.17" y="325.27" width="36.57" height="36.57"/><rect class="cls-1" x="107.74" y="325.27" width="36.57" height="36.57"/><rect class="cls-2" x="144.32" y="325.27" width="36.57" height="36.57"/><rect class="cls-1" x="180.89" y="325.27" width="36.57" height="36.57"/><rect class="cls-1" x="217.46" y="215.55" width="36.57" height="36.57"/><rect class="cls-1" x="290.61" y="215.55" width="36.57" height="36.57"/><rect class="cls-2" x="327.18" y="215.55" width="36.57" height="36.57"/><rect class="cls-2" x="217.46" y="252.12" width="36.57" height="36.57"/><rect class="cls-1" x="254.04" y="252.12" width="36.57" height="36.57"/><rect class="cls-2" x="290.61" y="252.12" width="36.57" height="36.57"/><rect class="cls-1" x="327.18" y="252.12" width="36.57" height="36.57"/><rect class="cls-1" x="327.18" y="178.98" width="36.57" height="36.57"/><rect class="cls-1" x="217.46" y="288.7" width="36.57" height="36.57"/><rect class="cls-2" x="254.04" y="288.7" width="36.57" height="36.57"/><rect class="cls-1" x="290.61" y="288.7" width="36.57" height="36.57"/><rect class="cls-2" x="327.18" y="288.7" width="36.57" height="36.57"/><rect class="cls-2" x="217.46" y="325.27" width="36.57" height="36.57"/><rect class="cls-1" x="254.04" y="325.27" width="36.57" height="36.57"/><rect class="cls-2" x="254.04" y="215.55" width="36.57" height="36.57"/><rect class="cls-2" x="290.61" y="325.27" width="36.57" height="36.57"/><rect class="cls-1" x="327.18" y="325.27" width="36.57" height="36.57"/><text class="cls-14" transform="translate(265.68 25.11) scale(1.07 1)">6</text><text class="cls-14" transform="translate(301.86 25.11) scale(1.07 1)">7</text><text class="cls-14" transform="translate(338.95 25.11) scale(1.07 1)">8</text><text class="cls-14" transform="translate(83.97 25.11) scale(1.07 1)">1</text><text class="cls-14" transform="translate(120.15 25.11) scale(1.07 1)">2</text><text class="cls-14" transform="translate(157.54 25.11) scale(1.07 1)">3</text><text class="cls-14" transform="translate(193.72 25.11) scale(1.07 1)">4</text><text class="cls-14" transform="translate(229.65 25.11) scale(1.07 1)">5</text><text class="cls-14" transform="translate(47.4 25.11) scale(1.07 1)">0</text><text class="cls-14" transform="translate(375.95 25.11) scale(1.07 1)">9</text><text class="cls-14" transform="translate(12.22 276.14) scale(1.07 1)">6</text><text class="cls-14" transform="translate(12.22 312.72) scale(1.07 1)">7</text><text class="cls-14" transform="translate(12.22 349.29) scale(1.07 1)">8</text><text class="cls-14" transform="translate(12.22 93.28) scale(1.07 1)">1</text><text class="cls-14" transform="translate(12.22 129.85) scale(1.07 1)">2</text><text class="cls-14" transform="translate(12.22 166.42) scale(1.07 1)">3</text><text class="cls-14" transform="translate(12.22 203) scale(1.07 1)">4</text><text class="cls-14" transform="translate(12.22 239.57) scale(1.07 1)">5</text><text class="cls-14" transform="translate(12.22 56.7) scale(1.07 1)">0</text><text class="cls-14" transform="translate(12.22 387.29) scale(1.07 1)">9</text><rect class="cls-2" x="34.6" y="69.26" width="36.57" height="36.57"/><rect class="cls-2" x="71.17" y="32.68" width="36.57" height="36.57"/><rect class="cls-2" x="217.46" y="32.68" width="36.57" height="36.57"/><rect class="cls-2" x="34.6" y="215.55" width="36.57" height="36.57"/><line class="cls-15" x1="53.46" y1="67.64" x2="52.9" y2="122.21"/><line class="cls-16" x1="52.88" y1="124.12" x2="74.89" y2="124.12"/><polygon class="cls-17" points="70.9 127.51 74.29 124.12 70.9 120.73 73.78 120.73 77.17 124.12 73.78 127.51 70.9 127.51"/><line class="cls-16" x1="126.48" y1="121.38" x2="126.48" y2="68.92"/><polygon class="cls-17" points="129.87 72.9 126.48 69.51 123.09 72.9 123.09 70.03 126.48 66.63 129.87 70.03 129.87 72.9"/><line class="cls-18" x1="126.44" y1="124.12" x2="100.65" y2="124.12"/><g id="_6nHHAL.tif-2" data-name="6nHHAL.tif"><path class="cls-3" d="M121.63,57.38a1.47,1.47,0,0,1-1.16-1.32,8,8,0,0,1,3.08-6.92,10.64,10.64,0,0,0,1.66-1.48,5.39,5.39,0,0,0,1.19-2.76,4.86,4.86,0,0,0,0-1.27c-.07.13-.11.22-.17.31a2,2,0,0,1-2.23.91,2,2,0,0,0-1.82.47,2.67,2.67,0,0,0-.69.77.32.32,0,0,1-.25.17,1.36,1.36,0,0,1-1.38-.62,1.31,1.31,0,0,1,.08-1.53l2-2.51,1.51-1.89a1.3,1.3,0,0,1,1-.54c.12,0,.12-.09.14-.16a3,3,0,0,1,1.57-2c.13-.07.25-.09.32.08,0,.54,0,1.09,0,1.53V37.34c0-.05,0-.11,0-.16a4.08,4.08,0,0,1,0,.7c0,.33,0,.67,0,1,0,.15.05.19.19.22a7.21,7.21,0,0,1,2.12.64,6.72,6.72,0,0,1,3.67,4.63,7.14,7.14,0,0,1-.15,3.67,16.18,16.18,0,0,0-.45,1.92l0,.1a6.55,6.55,0,0,0-.19.63A10.92,10.92,0,0,1,130.43,53a9.54,9.54,0,0,1-3.25,3.05,10.57,10.57,0,0,1-3.66,1.23,8.24,8.24,0,0,1-1.49.11A.9.9,0,0,1,121.63,57.38Z"/><path class="cls-3" d="M130,58.61a8.84,8.84,0,0,0,2.48,2,2.11,2.11,0,0,1,.53.4,1.07,1.07,0,0,1-.44,1.79s-.09,0-.11.05-.08.09-.15.09H119.75c-.07,0-.15,0-.19-.08s-.09-.05-.14-.07a1.07,1.07,0,0,1-.37-1.78,3.13,3.13,0,0,1,.73-.52A8.42,8.42,0,0,0,122,58.61c0-.06.12,0,.19,0h7.6C129.9,58.56,130,58.55,130,58.61Z"/><path class="cls-4" d="M121.63,57.38a.38.38,0,0,1,.18,0,10.34,10.34,0,0,0,2.88-.36,9.56,9.56,0,0,0,3.14-1.41,9.71,9.71,0,0,0,1.31-1.09A11.17,11.17,0,0,0,131,52a15.8,15.8,0,0,0,.81-1.89l0,0,0,0c-.08.56-.18,1.11-.22,1.67s-.09.82-.1,1.23c0,.1,0,.21,0,.31a3.28,3.28,0,0,0,0,.7c0,.67,0,1.34.05,2a1.46,1.46,0,0,1-1.22,1.42.42.42,0,0,1,.29.1.27.27,0,0,1,0,.38c-.19.24-.38.47-.58.7-.05,0-.11,0-.16,0h-7.65c-.06,0-.12,0-.17,0l-.54-.65c-.18-.22-.15-.38.11-.52C121.62,57.41,121.64,57.4,121.63,57.38Z"/><path class="cls-3" d="M133.33,64.92c-.05.06-.12,0-.18,0H118.89s-.11,0-.16,0a8.62,8.62,0,0,0,0-.88c0-.07,0-.13,0-.19a.73.73,0,0,1,.36,0h13.8a.51.51,0,0,1,.36.07,2.53,2.53,0,0,1,0,.55A4,4,0,0,0,133.33,64.92Z"/><path class="cls-4" d="M133.3,63.9H119.09a.69.69,0,0,1-.32,0s0-.09,0-.13a1,1,0,0,1,.76-.86l.06,0h12.52a1.34,1.34,0,0,0,.4,0,1.36,1.36,0,0,1,.53.28,1.1,1.1,0,0,1,.32.61C133.29,63.78,133.34,63.85,133.3,63.9Z"/><path class="cls-5" d="M122,58.58h8v0h-8Z"/><path class="cls-6" d="M126.48,37.18V39a.16.16,0,0,1,0-.15V37.34a.41.41,0,0,1,0-.22Z"/><path class="cls-7" d="M118.74,63.73l0,.13c0,.29,0,.58,0,.86a.34.34,0,0,1,0,.2C118.72,64.52,118.72,64.12,118.74,63.73Z"/><path class="cls-8" d="M133.3,63.9a.25.25,0,0,1,0-.17,11.81,11.81,0,0,1,0,1.19,2.51,2.51,0,0,1,0-.67C133.29,64.13,133.3,64,133.3,63.9Z"/><path class="cls-9" d="M131.48,54a6.07,6.07,0,0,1,0-.86c.05.06,0,.11,0,.16Z"/><path class="cls-10" d="M121.31,42.82c-.14.35-.29.68-.41,1a5.35,5.35,0,0,0-.3,1.82c0,.06,0,.14,0,.17s-.12,0-.17-.08a1.12,1.12,0,0,1-.17-1.61l1-1.25A.6.6,0,0,1,121.31,42.82Z"/><path class="cls-5" d="M119.55,62.4a.73.73,0,0,1-.54-.77.77.77,0,0,1,.68-.69A1,1,0,0,0,119.55,62.4Z"/></g><rect class="cls-1" x="363.17" y="69.26" width="36.57" height="36.57"/><rect class="cls-2" x="363.17" y="105.83" width="36.57" height="36.57"/><rect class="cls-1" x="363.17" y="142.4" width="36.57" height="36.57"/><rect class="cls-2" x="363.17" y="178.98" width="36.57" height="36.57"/><rect class="cls-1" x="363.17" y="215.55" width="36.57" height="36.57"/><rect class="cls-2" x="363.17" y="252.12" width="36.57" height="36.57"/><rect class="cls-1" x="363.17" y="288.7" width="36.57" height="36.57"/><rect class="cls-2" x="363.17" y="325.27" width="36.57" height="36.57"/><rect class="cls-2" x="363.17" y="32.68" width="36.57" height="36.57"/><rect class="cls-2" x="34.6" y="361.7" width="36.57" height="36.57"/><rect class="cls-1" x="71.17" y="361.7" width="36.57" height="36.57"/><rect class="cls-2" x="107.74" y="361.7" width="36.57" height="36.57"/><rect class="cls-1" x="144.32" y="361.7" width="36.57" height="36.57"/><rect class="cls-2" x="180.89" y="361.7" width="36.57" height="36.57"/><rect class="cls-1" x="217.46" y="361.7" width="36.57" height="36.57"/><rect class="cls-2" x="254.04" y="361.7" width="36.57" height="36.57"/><rect class="cls-1" x="290.61" y="361.7" width="36.57" height="36.57"/><rect class="cls-2" x="327.18" y="361.7" width="36.57" height="36.57"/><rect class="cls-1" x="363.17" y="361.7" width="36.57" height="36.57"/><rect class="cls-19" x="34.1" y="32.19" width="365.65" height="365.65"/></svg>