<svg id="Layer_1" width="100%" height="350" data-name="Layer 1" xmlns="http://www.w3.org/2000/svg" viewBox="0 0 369.13 375"><defs><style>.cls-1,.cls-13{fill:#fff;}.cls-1,.cls-13,.cls-14,.cls-2,.cls-4{stroke:#231f20;}.cls-1,.cls-13,.cls-14,.cls-15,.cls-16,.cls-18,.cls-19,.cls-2,.cls-4{stroke-miterlimit:10;}.cls-1,.cls-2{stroke-width:0.5px;}.cls-2,.cls-3{fill:#231f20;}.cls-3{font-size:24px;font-family:OpenSans, Open Sans;}.cls-4{fill:#a7a9ac;stroke-width:4px;}.cls-5{fill:#2f2f2f;}.cls-6{fill:#252525;}.cls-7{fill:#4c4c4c;}.cls-8{fill:#1d1d1d;}.cls-9{fill:#151515;}.cls-10{fill:#171717;}.cls-11{fill:#1f1f1f;}.cls-12{fill:#4b4b4b;}.cls-13,.cls-15,.cls-16,.cls-18,.cls-19{stroke-width:2px;}.cls-14,.cls-15,.cls-16,.cls-18,.cls-19{fill:none;}.cls-15,.cls-16,.cls-18,.cls-19{stroke:#497824;}.cls-15{stroke-dasharray:8;}.cls-16{stroke-dasharray:10 10;}.cls-17{fill:#497824;}.cls-18{stroke-dasharray:7;}.cls-19{stroke-dasharray:8 8;}</style></defs><title>Artboard 1</title><rect class="cls-1" x="41.03" y="43.05" width="51.43" height="51.43"/><rect class="cls-2" x="195.33" y="43.05" width="51.43" height="51.43"/><rect class="cls-1" x="246.76" y="43.05" width="51.43" height="51.43"/><rect class="cls-1" x="92.46" y="94.49" width="51.43" height="51.43"/><rect class="cls-2" x="143.89" y="94.49" width="51.43" height="51.43"/><rect class="cls-2" x="246.76" y="94.49" width="51.43" height="51.43"/><rect class="cls-1" x="41.03" y="145.92" width="51.43" height="51.43"/><rect class="cls-1" x="143.89" y="145.92" width="51.43" height="51.43"/><rect class="cls-2" x="195.33" y="145.92" width="51.43" height="51.43"/><rect class="cls-1" x="246.76" y="145.92" width="51.43" height="51.43"/><rect class="cls-2" x="41.03" y="197.36" width="51.43" height="51.43"/><rect class="cls-1" x="92.46" y="197.36" width="51.43" height="51.43"/><rect class="cls-1" x="195.33" y="197.36" width="51.43" height="51.43"/><rect class="cls-2" x="246.76" y="197.36" width="51.43" height="51.43"/><rect class="cls-1" x="41.03" y="248.79" width="51.43" height="51.43"/><rect class="cls-2" x="92.46" y="248.79" width="51.43" height="51.43"/><rect class="cls-1" x="143.89" y="248.79" width="51.43" height="51.43"/><rect class="cls-2" x="195.33" y="248.79" width="51.43" height="51.43"/><rect class="cls-1" x="246.76" y="248.79" width="51.43" height="51.43"/><rect class="cls-1" x="143.89" y="43.05" width="51.43" height="51.43"/><rect class="cls-2" x="92.46" y="145.92" width="51.43" height="51.43"/><rect class="cls-1" x="298.19" y="94.49" width="51.43" height="51.43"/><rect class="cls-2" x="298.19" y="145.92" width="51.43" height="51.43"/><rect class="cls-1" x="298.19" y="197.36" width="51.43" height="51.43"/><rect class="cls-2" x="298.19" y="248.79" width="51.43" height="51.43"/><rect class="cls-1" x="92.46" y="300.22" width="51.43" height="51.43"/><rect class="cls-2" x="143.89" y="300.22" width="51.43" height="51.43"/><rect class="cls-1" x="195.33" y="300.22" width="51.43" height="51.43"/><rect class="cls-2" x="246.76" y="300.22" width="51.43" height="51.43"/><rect class="cls-1" x="298.19" y="300.22" width="51.43" height="51.43"/><text class="cls-3" transform="translate(110.46 32.41) scale(1.07 1)">1</text><text class="cls-3" transform="translate(161.34 32.41) scale(1.07 1)">2</text><text class="cls-3" transform="translate(213.92 32.41) scale(1.07 1)">3</text><text class="cls-3" transform="translate(264.8 32.41) scale(1.07 1)">4</text><text class="cls-3" transform="translate(315.33 32.41) scale(1.07 1)">5</text><text class="cls-3" transform="translate(59.03 32.41) scale(1.07 1)">0</text><text class="cls-3" transform="translate(9.56 128.27) scale(1.07 1)">1</text><text class="cls-3" transform="translate(9.56 179.7) scale(1.07 1)">2</text><text class="cls-3" transform="translate(9.55 231.14) scale(1.07 1)">3</text><text class="cls-3" transform="translate(9.55 282.57) scale(1.07 1)">4</text><text class="cls-3" transform="translate(9.55 334) scale(1.07 1)">5</text><text class="cls-3" transform="translate(9.56 76.83) scale(1.07 1)">0</text><rect class="cls-2" x="41.03" y="94.49" width="51.43" height="51.43"/><rect class="cls-2" x="92.46" y="43.05" width="51.43" height="51.43"/><rect class="cls-4" x="298.19" y="43.05" width="51.43" height="51.43"/><rect class="cls-2" x="41.03" y="300.22" width="51.43" height="51.43"/><g id="_6nHHAL.tif" data-name="6nHHAL.tif"><path class="cls-5" d="M112,335a2.08,2.08,0,0,1-1.64-1.85,11.21,11.21,0,0,1,4.34-9.73,16,16,0,0,0,2.33-2.09,7.61,7.61,0,0,0,1.68-3.88,7.06,7.06,0,0,0,0-1.79l-.23.44a2.77,2.77,0,0,1-3.15,1.29,2.78,2.78,0,0,0-2.55.66,3.24,3.24,0,0,0-1,1.08.44.44,0,0,1-.36.23,1.9,1.9,0,0,1-1.94-.87,1.85,1.85,0,0,1,.11-2.15c.93-1.18,1.87-2.35,2.81-3.53l2.12-2.66a1.87,1.87,0,0,1,1.36-.76c.16,0,.16-.12.18-.22a4.15,4.15,0,0,1,2.21-2.77c.19-.1.36-.13.45.11,0,.77,0,1.53,0,2.15,0-.52,0-1.17,0-1.83,0-.08,0-.16,0-.23a6.29,6.29,0,0,1,0,1c0,.48,0,1,0,1.42,0,.21.08.27.26.3a10.06,10.06,0,0,1,3,.91,9.4,9.4,0,0,1,5.16,6.51,10,10,0,0,1-.21,5.16,23,23,0,0,0-.64,2.7.74.74,0,0,1,0,.14c-.12.28-.16.59-.26.88a15.73,15.73,0,0,1-1.71,3.31,13.8,13.8,0,0,1-1.71,2.09,13.31,13.31,0,0,1-2.87,2.19,14.29,14.29,0,0,1-5.14,1.73,10.63,10.63,0,0,1-2.1.17A1.52,1.52,0,0,1,112,335Z"/><path class="cls-5" d="M123.79,336.68a12,12,0,0,0,3.49,2.8,2.93,2.93,0,0,1,.74.57,1.52,1.52,0,0,1-.63,2.52s-.11,0-.15.06-.1.13-.2.13c-5.74,0-11.48,0-17.22,0h-.47c-.11,0-.22,0-.28-.11a.34.34,0,0,0-.19-.09,1.52,1.52,0,0,1-.53-2.52,4.71,4.71,0,0,1,1-.72,11.59,11.59,0,0,0,3.17-2.62.34.34,0,0,1,.27-.07h10.69A.34.34,0,0,1,123.79,336.68Z"/><path class="cls-6" d="M112,335a.55.55,0,0,1,.25,0,15,15,0,0,0,4.06-.5,13.68,13.68,0,0,0,4.4-2,12.88,12.88,0,0,0,1.84-1.53,14.79,14.79,0,0,0,2.59-3.54,21.5,21.5,0,0,0,1.14-2.66l0-.06,0,0c-.1.78-.24,1.56-.31,2.34,0,.58-.12,1.16-.13,1.74,0,.14,0,.29,0,.43a4.68,4.68,0,0,0,0,1c0,.94,0,1.88.08,2.82a2.08,2.08,0,0,1-1.72,2,.55.55,0,0,1,.4.13.39.39,0,0,1,0,.54l-.81,1a.45.45,0,0,1-.23,0H112.8a.4.4,0,0,1-.24,0c-.25-.3-.51-.6-.76-.91s-.2-.53.15-.72C112,335,112,335,112,335Z"/><path class="cls-5" d="M128.44,345.56c-.07.07-.17,0-.25,0q-10,0-20,0c-.08,0-.16,0-.23,0,0-.42,0-.83,0-1.25,0-.08,0-.17,0-.26a1.14,1.14,0,0,1,.52-.05h19.4a.71.71,0,0,1,.51.09,4.07,4.07,0,0,1,0,.78A4,4,0,0,0,128.44,345.56Z"/><path class="cls-6" d="M128.39,344.12h-20a1,1,0,0,1-.45-.05c-.06-.05,0-.13,0-.19a1.43,1.43,0,0,1,1.07-1.2l.08-.05h17.61a1.75,1.75,0,0,0,.56,0,1.82,1.82,0,0,1,.75.4,1.38,1.38,0,0,1,.44.85C128.39,344,128.45,344.05,128.39,344.12Z"/><path class="cls-7" d="M112.56,336.63h11.23v0H112.56Z"/><path class="cls-8" d="M118.8,306.55v2.55c-.08-.08,0-.15,0-.21v-2.12a.65.65,0,0,1,0-.31Z"/><path class="cls-9" d="M107.92,343.88l0,.19v1.21a.56.56,0,0,1,0,.28C107.89,345,107.89,344.44,107.92,343.88Z"/><path class="cls-10" d="M128.39,344.12a.49.49,0,0,1,0-.24,15.69,15.69,0,0,1,0,1.68,3.71,3.71,0,0,1,0-.94C128.39,344.45,128.39,344.28,128.39,344.12Z"/><path class="cls-11" d="M125.84,330.16a9.75,9.75,0,0,1,0-1.22c.07.09,0,.16.06.23Z"/><path class="cls-12" d="M111.54,314.48c-.2.48-.42.95-.58,1.44a7.47,7.47,0,0,0-.42,2.56c0,.09,0,.2,0,.25s-.18-.06-.24-.12a1.56,1.56,0,0,1-.24-2.26c.46-.6.93-1.18,1.4-1.76A.63.63,0,0,1,111.54,314.48Z"/><path class="cls-7" d="M109.06,342a1,1,0,0,1-.76-1.09,1.07,1.07,0,0,1,1-1A1.34,1.34,0,0,0,109.06,342Z"/></g><g id="_6nHHAL.tif-2" data-name="6nHHAL.tif"><path class="cls-5" d="M317.72,77.78a2.09,2.09,0,0,1-1.64-1.85,11.22,11.22,0,0,1,4.35-9.73,16.43,16.43,0,0,0,2.33-2.09,7.75,7.75,0,0,0,1.68-3.88,7.47,7.47,0,0,0,.05-1.78c-.1.17-.16.3-.24.43a2.76,2.76,0,0,1-3.14,1.29,2.82,2.82,0,0,0-2.56.66,3.42,3.42,0,0,0-1,1.08.47.47,0,0,1-.37.24,1.92,1.92,0,0,1-1.93-.87,1.87,1.87,0,0,1,.11-2.16c.92-1.18,1.86-2.35,2.8-3.52.71-.89,1.41-1.78,2.12-2.66a1.83,1.83,0,0,1,1.36-.76c.17,0,.16-.13.19-.23a4.15,4.15,0,0,1,2.21-2.77c.18-.1.35-.13.45.11,0,.77,0,1.53,0,2.15V49.61c0-.08,0-.16,0-.23a5.33,5.33,0,0,1,0,1c0,.47,0,.94,0,1.41,0,.21.07.27.26.3a10.55,10.55,0,0,1,3,.91A9.47,9.47,0,0,1,333,59.5a10,10,0,0,1-.22,5.16,24.61,24.61,0,0,0-.63,2.7.69.69,0,0,1-.05.13c-.12.28-.15.59-.26.88a15.27,15.27,0,0,1-1.71,3.31A13.64,13.64,0,0,1,325.53,76a14.55,14.55,0,0,1-5.15,1.74,11.3,11.3,0,0,1-2.1.16A1.34,1.34,0,0,1,317.72,77.78Z"/><path class="cls-5" d="M329.52,79.51A12.31,12.31,0,0,0,333,82.32a2.94,2.94,0,0,1,.75.56,1.52,1.52,0,0,1-.63,2.52c-.05,0-.12,0-.15.06s-.11.13-.21.13c-5.74,0-11.47,0-17.21,0a3.85,3.85,0,0,1-.48,0,.29.29,0,0,1-.28-.11c0-.06-.12-.07-.18-.09a1.51,1.51,0,0,1-.53-2.51,4.18,4.18,0,0,1,1-.73,11.63,11.63,0,0,0,3.18-2.62c.07-.08.17-.07.27-.07h10.68C329.35,79.44,329.45,79.43,329.52,79.51Z"/><path class="cls-6" d="M317.72,77.78a.57.57,0,0,1,.26,0,14.6,14.6,0,0,0,4-.5,13.46,13.46,0,0,0,6.25-3.52,15,15,0,0,0,2.58-3.54A20.14,20.14,0,0,0,332,67.52s0,0,0-.06l0,0c-.1.78-.24,1.56-.31,2.34,0,.58-.12,1.16-.13,1.74a3,3,0,0,1,0,.43,4.1,4.1,0,0,0,0,1c0,.94.05,1.88.07,2.82a2.08,2.08,0,0,1-1.72,2,.54.54,0,0,1,.4.13.39.39,0,0,1,0,.54l-.82,1a.44.44,0,0,1-.23,0H318.53a.44.44,0,0,1-.23,0l-.77-.92c-.25-.3-.2-.53.16-.72C317.71,77.82,317.73,77.82,317.72,77.78Z"/><path class="cls-5" d="M334.17,88.39c-.07.08-.16,0-.25,0H313.87c-.07,0-.16,0-.22,0,0-.42,0-.83,0-1.25,0-.08,0-.17,0-.25a1,1,0,0,1,.52-.06h19.4a.75.75,0,0,1,.51.09,4.07,4.07,0,0,1,0,.78C334.17,87.93,334.13,88.16,334.17,88.39Z"/><path class="cls-6" d="M334.13,87h-20a1,1,0,0,1-.45,0c-.05-.05,0-.13,0-.19a1.43,1.43,0,0,1,1.08-1.2l.07-.05h17.61a1.82,1.82,0,0,0,.57,0,2,2,0,0,1,.75.4,1.49,1.49,0,0,1,.44.85C334.12,86.79,334.18,86.88,334.13,87Z"/><path class="cls-7" d="M318.3,79.47h11.22v0H318.3Z"/><path class="cls-8" d="M324.54,49.38v2.55c-.08-.08-.05-.15-.05-.21,0-.7,0-1.41,0-2.12a.67.67,0,0,1,0-.31Z"/><path class="cls-9" d="M313.65,86.71l0,.19v1.21a.55.55,0,0,1,0,.28C313.63,87.83,313.62,87.27,313.65,86.71Z"/><path class="cls-10" d="M334.13,87a.51.51,0,0,1,0-.24,15.69,15.69,0,0,1,0,1.68,4.23,4.23,0,0,1,0-.94C334.12,87.28,334.13,87.12,334.13,87Z"/><path class="cls-11" d="M331.58,73a7,7,0,0,1,0-1.22c.07.09,0,.17,0,.23Z"/><path class="cls-12" d="M317.27,57.31c-.19.49-.41.95-.58,1.44a7.28,7.28,0,0,0-.41,2.57c0,.08,0,.2,0,.24s-.17-.06-.24-.12a1.56,1.56,0,0,1-.24-2.26c.46-.59.94-1.17,1.41-1.76A.57.57,0,0,1,317.27,57.31Z"/><path class="cls-7" d="M314.8,84.85a1.05,1.05,0,0,1-.77-1.09,1.09,1.09,0,0,1,1-1A1.35,1.35,0,0,0,314.8,84.85Z"/></g><rect class="cls-4" x="143.89" y="197.36" width="51.43" height="51.43"/><rect class="cls-4" x="195.33" y="94.49" width="51.43" height="51.43"/><circle class="cls-13" cx="221.04" cy="120.21" r="8.06"/><circle class="cls-13" cx="169.61" cy="223.07" r="8.06"/><rect class="cls-14" x="41.03" y="43.05" width="308.6" height="308.6"/><line class="cls-15" x1="117.65" y1="302.49" x2="116.86" y2="225.75"/><line class="cls-16" x1="116.83" y1="223.07" x2="148.7" y2="223.07"/><polygon class="cls-17" points="144.72 226.46 148.11 223.07 144.72 219.68 147.6 219.68 150.99 223.07 147.6 226.46 144.72 226.46"/><line class="cls-18" x1="170.28" y1="206.03" x2="169.44" y2="124.38"/><line class="cls-16" x1="169.42" y1="121.7" x2="201.29" y2="121.7"/><polygon class="cls-17" points="197.3 125.09 200.69 121.7 197.3 118.31 200.18 118.31 203.57 121.7 200.18 125.09 197.3 125.09"/><line class="cls-18" x1="221.44" y1="104.71" x2="221.44" y2="71.77"/><line class="cls-19" x1="221.44" y1="68.77" x2="305.21" y2="68.77"/><polygon class="cls-17" points="301.23 72.16 304.62 68.77 301.23 65.38 304.11 65.38 307.5 68.77 304.11 72.16 301.23 72.16"/></svg>